<svg width="18" height="19" viewBox="0 0 18 19" fill="none" xmlns="http://www.w3.org/2000/svg">
<path d="M13.2627 18.4258C14.8008 18.4258 15.8467 17.9863 16.7959 16.958C16.8574 16.8877 16.9189 16.8086 16.9805 16.7383C17.499 16.1582 17.7539 15.5518 17.7539 14.9893C17.7539 14.3301 17.4023 13.7324 16.6201 13.1963L14.001 11.3682C13.1748 10.7969 12.2168 10.7529 11.4785 11.4912L10.8281 12.1416C10.5996 12.3701 10.3799 12.3877 10.1162 12.2031C9.6416 11.8867 8.74512 11.0957 8.12988 10.4805C7.50586 9.85645 6.87305 9.15333 6.53027 8.61719C6.3457 8.34473 6.36328 8.1338 6.5918 7.90528L7.24219 7.25489C7.98047 6.51661 7.93652 5.5586 7.35645 4.73243L5.49316 2.06934C4.97461 1.31348 4.35059 0.96192 3.69141 0.953131C3.12891 0.944342 2.53125 1.19922 1.95117 1.70899C1.88086 1.77051 1.81055 1.83204 1.74023 1.89356C0.694336 2.85157 0.246094 3.87989 0.246094 5.4795C0.246094 8.07227 1.74902 11.1309 4.67578 14.04C7.58496 16.9316 10.6084 18.4258 13.2627 18.4258ZM13.2627 16.958C11.0215 16.9932 8.23535 15.4023 5.79199 12.9766C3.33105 10.5508 1.69629 7.65919 1.73145 5.41797C1.74902 4.47755 2.08301 3.65137 2.74219 3.0713C2.8125 3.01856 2.86523 2.97462 2.93555 2.92188C3.18164 2.71094 3.44531 2.59669 3.69141 2.59669C3.94629 2.59669 4.1748 2.70215 4.35059 2.96583L5.99414 5.43555C6.20508 5.73438 6.21387 6.07715 5.90625 6.37598L5.20312 7.07032C4.53516 7.72071 4.59668 8.48536 5.01855 9.08301C5.49316 9.74219 6.38086 10.7529 7.12793 11.4912C7.92773 12.2822 9.01758 13.2578 9.65039 13.7148C10.248 14.1367 11.0127 14.1982 11.6631 13.5303L12.3574 12.8272C12.6475 12.5195 12.9902 12.5283 13.2979 12.7305L15.7236 14.3477C15.9961 14.5234 16.0928 14.7432 16.0928 14.9981C16.0928 15.2441 15.9785 15.5078 15.7676 15.7627C15.7148 15.8242 15.6709 15.877 15.6182 15.9473C15.0381 16.6152 14.2119 16.9492 13.2627 16.958Z" fill="black"/>
</svg>
