<svg width="22" height="20" viewBox="0 0 22 20" fill="none" xmlns="http://www.w3.org/2000/svg">
<path d="M4.79492 19.2168C6.0166 19.2168 8.48633 18.0303 10.3496 16.7031C16.5547 16.8174 21.1953 13.2314 21.1953 8.52051C21.1953 3.97656 16.6514 0.320312 10.9912 0.320312C5.33105 0.320312 0.795898 3.97656 0.795898 8.52051C0.795898 11.4121 2.58887 13.9873 5.33984 15.332C4.96191 16.0439 4.29395 17.0195 3.91602 17.5293C3.35352 18.2764 3.74023 19.2168 4.79492 19.2168ZM5.8584 17.3975C5.74414 17.4414 5.7002 17.3799 5.7793 17.2832C6.22754 16.7383 6.88672 15.8682 7.21191 15.2529C7.47559 14.7695 7.3877 14.3477 6.8252 14.084C4.14453 12.8271 2.58887 10.8145 2.58887 8.52051C2.58887 4.9873 6.31543 2.11328 10.9912 2.11328C15.667 2.11328 19.3936 4.9873 19.3936 8.52051C19.3936 12.0537 15.667 14.9365 10.9912 14.9365C10.833 14.9365 10.5869 14.9277 10.2881 14.9277C9.91016 14.9189 9.62891 15.0332 9.27734 15.3057C8.21387 16.0967 6.64062 17.0811 5.8584 17.3975Z" fill="black"/>
</svg>
