<svg width="22" height="20" viewBox="0 0 22 20" fill="none" xmlns="http://www.w3.org/2000/svg">
<path d="M4.3291 19.1201C5.40137 19.1201 7.95898 18.0039 9.55859 16.8789C9.72559 16.7559 9.86621 16.7119 10.0068 16.7119C10.1211 16.7207 10.2266 16.7295 10.3232 16.7295C16.6602 16.7207 21.1953 13.2666 21.1953 8.52051C21.1953 3.97656 16.6514 0.320312 10.9912 0.320312C5.33105 0.320312 0.795898 3.97656 0.795898 8.52051C0.795898 11.3506 2.50098 13.8818 5.38379 15.4375C5.54199 15.5342 5.58594 15.666 5.50684 15.8242C4.99707 16.6768 4.14453 17.626 3.79297 18.0742C3.39746 18.5752 3.62598 19.1201 4.3291 19.1201Z" fill="black"/>
</svg>
